<?xml version="1.0" standalone="no"?>
<!DOCTYPE svg PUBLIC "-//W3C//DTD SVG 20010904//EN"
 "http://www.w3.org/TR/2001/REC-SVG-20010904/DTD/svg10.dtd">
<svg version="1.0" xmlns="http://www.w3.org/2000/svg"
 width="640.000000pt" height="300.000000pt" viewBox="0 0 640.000000 300.000000"
 preserveAspectRatio="xMidYMid meet">
<metadata>
Created by potrace 1.16, written by Peter Selinger 2001-2019
</metadata>
<g transform="translate(0.000000,300.000000) scale(0.100000,-0.100000)"
fill="#000000" stroke="none">
<path d="M785 2931 c-180 -70 -239 -113 -277 -198 -27 -60 -49 -158 -48 -203
1 -19 2 -61 1 -94 -1 -47 -4 -57 -16 -52 -8 3 -21 8 -28 11 -15 6 -41 -50 -31
-66 5 -8 3 -9 -5 -4 -13 7 -61 -30 -61 -48 0 -5 13 -22 28 -37 16 -15 32 -36
36 -46 8 -18 9 -17 19 6 6 14 14 27 17 30 4 3 9 13 13 23 5 14 11 16 26 7 11
-6 18 -17 15 -24 -3 -8 -1 -17 5 -21 7 -4 8 0 4 11 -4 12 -2 15 8 10 8 -3 21
-9 31 -12 10 -4 19 -23 23 -52 7 -49 27 -96 46 -107 6 -4 4 7 -5 23 -18 35
-21 72 -6 72 6 0 10 -9 10 -20 0 -12 9 -39 19 -61 11 -21 14 -36 8 -33 -7 4
-6 1 2 -7 10 -11 15 -11 18 -1 3 6 9 10 14 6 14 -8 11 15 -11 101 -18 71 -28
270 -10 221 4 -12 11 5 19 49 21 105 88 212 153 246 53 27 185 24 146 -3 -8
-6 0 -7 25 -3 28 4 39 2 43 -9 5 -13 10 -12 36 4 30 18 64 17 52 -1 -3 -5 2
-9 10 -9 9 0 18 -11 22 -25 4 -14 9 -24 11 -21 6 5 22 -10 38 -36 6 -9 32 -47
59 -85 68 -94 84 -135 96 -243 12 -108 24 -140 35 -92 3 18 13 32 21 32 10 0
14 13 14 44 0 25 5 48 11 51 6 4 8 25 5 54 -6 42 -5 44 9 27 14 -19 15 -18 15
13 0 51 -47 234 -75 293 -47 99 -70 135 -105 164 -19 16 -37 31 -40 34 -10 12
-95 67 -115 74 -11 4 -31 10 -45 12 -14 3 -43 9 -65 14 -70 16 -145 10 -220
-19z"/>
<path d="M4752 2852 c-17 -3 -22 -9 -20 -25 3 -20 -2 -22 -49 -25 -46 -3 -53
-6 -53 -24 0 -20 4 -21 88 -15 106 7 96 -1 -13 -11 -43 -4 -80 -12 -82 -18 -2
-6 5 -20 14 -31 14 -15 27 -19 53 -16 32 4 33 3 17 -10 -10 -8 -28 -12 -40
-10 -15 4 -19 2 -12 -4 15 -16 114 -22 128 -9 7 7 26 21 44 31 18 10 29 23 26
28 -4 6 -1 7 6 3 16 -10 64 2 56 13 -3 5 4 7 15 4 11 -3 20 -1 20 4 0 9 -27
26 -60 36 -8 3 -1 6 17 6 17 1 34 7 36 14 4 9 8 9 14 0 4 -6 20 -10 35 -10 21
2 24 5 15 16 -7 8 -13 9 -15 3 -2 -6 -15 1 -30 16 -31 31 -72 40 -72 16 0 -13
-3 -14 -14 -5 -8 7 -23 11 -33 9 -10 -2 -17 2 -16 8 1 6 -5 11 -13 11 -7 0
-14 -5 -14 -10 0 -6 -5 -6 -12 0 -7 5 -23 7 -36 5z"/>
<path d="M2987 2539 c-13 -16 -22 -31 -19 -34 3 -3 0 -5 -7 -5 -8 0 -11 8 -8
19 3 13 -1 21 -13 24 -13 3 -16 0 -13 -13 3 -11 -3 -19 -17 -23 -18 -4 -19 -3
-9 9 20 25 0 29 -21 4 -19 -22 -22 -30 -24 -75 -1 -15 -7 -19 -27 -17 -15 1
-32 -4 -39 -13 -7 -8 -10 -15 -6 -15 3 0 1 -11 -4 -24 -9 -25 -3 -69 10 -61 4
2 12 -7 18 -20 7 -15 8 -25 2 -25 -19 0 3 -30 25 -36 16 -4 22 -11 18 -21 -10
-25 -49 -33 -103 -21 -39 9 -82 8 -190 -2 -121 -11 -143 -11 -158 2 -9 7 -29
20 -45 28 -15 7 -30 25 -34 39 -8 37 -23 52 -43 46 -13 -4 -26 6 -47 36 -35
52 -60 70 -72 50 -5 -7 -14 -10 -21 -6 -9 6 -9 9 1 16 8 5 9 9 3 9 -5 0 -19
-6 -30 -14 -13 -10 -23 -11 -32 -4 -10 8 -11 7 -5 -8 6 -16 5 -17 -9 -6 -9 7
-30 15 -47 17 -17 2 -39 9 -50 15 -13 7 -22 7 -26 0 -4 -6 -10 -8 -15 -5 -4 3
-11 -2 -14 -11 -3 -9 -13 -14 -21 -10 -21 8 -78 -43 -65 -59 5 -6 7 -15 3 -19
-4 -4 0 -4 9 -1 13 5 15 2 11 -14 -3 -12 -9 -21 -14 -21 -4 0 -24 -16 -44 -37
-33 -34 -37 -36 -69 -26 -27 8 -37 8 -49 -5 -9 -8 -30 -15 -47 -14 -17 0 -46
-6 -65 -14 -19 -8 -37 -14 -40 -14 -15 2 -135 -63 -130 -70 3 -5 0 -12 -6 -16
-8 -4 -9 -3 -5 4 4 7 1 12 -8 12 -11 0 -16 -9 -16 -30 0 -23 -4 -30 -20 -30
-25 0 -80 -82 -80 -119 0 -14 -11 -36 -24 -50 -14 -15 -34 -51 -45 -81 -12
-31 -15 -48 -8 -37 15 18 33 24 22 7 -3 -5 -1 -10 5 -10 17 0 1 -20 -25 -30
-28 -11 -35 -37 -19 -75 7 -16 13 -24 14 -17 0 6 4 12 10 12 15 0 5 -56 -13
-75 -18 -18 -24 -50 -7 -40 15 9 12 -2 -6 -19 -8 -9 -11 -16 -5 -16 6 0 11
-11 11 -24 0 -27 19 -46 49 -49 11 0 19 -4 18 -7 -1 -3 6 -18 15 -35 l16 -29
21 34 c11 19 22 41 22 48 1 6 2 16 3 21 0 6 7 16 14 22 6 7 12 20 12 29 0 13
-1 13 -10 0 -5 -8 -10 -10 -10 -5 0 10 29 40 40 41 27 2 50 15 50 28 0 9 -4
16 -10 16 -5 0 -10 -7 -10 -15 0 -8 -4 -15 -10 -15 -13 0 -13 6 1 31 5 11 14
17 20 14 5 -4 9 5 9 18 0 13 9 32 20 42 11 10 19 23 17 29 -2 6 3 17 12 24 13
10 13 12 1 10 -8 -2 -14 5 -15 15 0 10 -7 22 -15 27 -9 6 -10 10 -3 10 7 0 10
7 7 15 -7 18 7 20 24 3 9 -9 12 -8 13 8 1 10 1 22 0 26 -1 11 38 30 52 25 6
-2 20 6 30 17 15 17 18 18 13 4 -7 -25 -2 -23 38 13 28 24 40 29 58 23 13 -4
29 -7 36 -5 8 1 20 -3 28 -10 8 -6 14 -7 14 -2 0 15 44 10 57 -6 9 -11 12 -12
13 -3 0 9 7 8 27 -5 27 -18 34 -20 98 -32 23 -4 39 -12 38 -19 -2 -7 6 -12 17
-12 11 0 23 -7 26 -15 4 -9 19 -15 38 -15 18 0 37 -5 43 -11 7 -7 15 -6 26 5
13 14 21 12 76 -15 34 -17 61 -34 61 -39 0 -4 7 -7 16 -6 16 3 65 -38 63 -52
-1 -4 -1 -9 1 -12 1 -3 4 -16 6 -29 9 -51 14 -31 14 58 0 90 1 94 29 120 22
21 38 27 68 25 22 0 45 -4 51 -8 8 -5 10 -1 5 11 -5 15 -3 16 8 6 16 -16 33
-17 23 -2 -4 8 1 9 15 4 16 -5 26 -1 36 12 10 13 26 18 59 18 25 0 46 4 46 9
0 4 9 -2 21 -15 11 -13 18 -18 14 -11 -3 6 -1 12 5 12 6 0 8 5 5 10 -12 19 18
10 51 -15 23 -17 34 -21 37 -12 3 8 11 4 22 -11 12 -17 20 -20 29 -13 9 8 16
4 26 -14 7 -14 10 -28 7 -31 -4 -4 1 -13 11 -21 9 -8 11 -12 5 -8 -18 9 -16
-11 3 -41 10 -14 23 -23 31 -20 8 3 11 1 8 -4 -3 -6 1 -10 9 -10 9 0 15 -3 14
-7 -5 -26 16 -172 25 -166 6 4 7 1 2 -7 -12 -20 -15 -80 -4 -80 10 0 25 33 40
85 6 22 7 16 3 -21 -6 -59 9 -94 37 -87 21 6 25 -7 34 -110 3 -37 15 -91 26
-120 17 -43 19 -58 10 -93 -8 -31 -7 -66 3 -135 8 -52 12 -96 10 -98 -2 -2
-24 2 -49 9 -33 9 -52 10 -68 2 -12 -5 -30 -13 -39 -16 -11 -3 -15 -11 -12
-21 4 -10 0 -15 -15 -15 -12 0 -21 -5 -21 -12 0 -6 -3 -9 -6 -6 -3 4 -21 0
-39 -8 -24 -10 -36 -11 -41 -3 -3 6 0 15 7 20 8 5 9 9 3 9 -6 0 -17 -7 -24
-16 -11 -12 -72 -44 -86 -44 -2 0 -4 7 -4 15 0 8 -7 15 -15 15 -18 0 -19 14
-4 42 6 12 7 18 1 14 -5 -3 -13 1 -16 10 -4 10 -2 13 6 8 7 -4 8 -3 4 5 -4 6
-23 10 -41 9 -38 -2 -57 9 -36 21 16 10 -8 21 -45 21 -36 0 -89 25 -177 82
-43 28 -81 48 -85 44 -4 -4 -7 -20 -8 -34 -2 -113 -6 -121 -28 -58 l-12 35
-69 -49 c-42 -31 -75 -48 -85 -45 -23 7 -106 -85 -88 -97 10 -7 9 -8 -2 -6
-23 4 -60 -21 -60 -40 0 -14 -2 -15 -10 -2 -8 13 -10 13 -15 0 -12 -33 -152
-171 -181 -179 -19 -5 -37 -21 -51 -47 -27 -47 -27 -48 -7 -68 11 -11 12 -16
3 -16 -10 0 -73 19 -87 26 -1 1 7 23 18 49 11 26 19 48 18 49 -2 1 -26 12 -55
25 -32 15 -74 47 -109 85 -32 33 -60 61 -63 62 -29 4 -67 32 -113 83 -30 34
-58 61 -61 61 -3 0 -5 -10 -4 -22 2 -28 -21 -98 -33 -98 -5 0 -14 14 -22 30
-7 16 -19 30 -25 30 -19 0 -16 8 12 42 20 24 25 41 26 91 0 34 2 70 4 80 7 37
-11 71 -41 79 -16 4 -39 22 -51 41 -38 55 -73 173 -73 245 l0 64 -28 -7 c-21
-4 -44 2 -85 24 -77 40 -129 81 -123 97 3 7 -13 23 -39 39 -24 14 -51 35 -59
46 l-14 21 -7 -21 c-3 -12 -11 -21 -16 -21 -6 0 -8 -4 -4 -9 7 -12 -36 -10
-52 2 -17 12 -18 -34 -2 -50 7 -7 9 -19 5 -29 -6 -15 -8 -16 -24 0 -10 9 -24
16 -30 16 -7 0 -12 4 -12 10 0 19 24 60 35 60 22 0 50 45 53 85 2 22 9 45 16
50 7 6 21 25 30 43 16 31 16 34 -4 62 -12 17 -24 30 -28 30 -13 0 -34 -42 -48
-97 -19 -71 -18 -97 1 -89 8 3 15 1 15 -4 0 -6 -11 -10 -25 -10 -16 0 -25 -6
-25 -15 0 -9 -9 -34 -20 -56 -27 -52 -94 -95 -163 -104 -40 -5 -64 -16 -106
-48 -52 -41 -100 -109 -102 -145 0 -10 -3 -12 -6 -4 -15 37 -35 -16 -36 -98 0
-25 -2 -35 -4 -23 -7 34 -21 28 -32 -14 -14 -53 -31 -170 -31 -220 0 -53 -8
-54 -83 -9 l-57 35 0 -485 0 -484 100 0 c55 0 100 4 100 9 0 5 20 36 44 69 25
33 48 76 51 96 5 25 11 33 22 29 17 -7 113 89 113 112 0 9 -10 15 -26 15 l-26
0 20 33 c11 17 40 46 65 62 24 17 64 46 88 66 62 51 93 65 197 90 74 17 103
30 151 66 35 26 75 46 98 50 21 3 47 12 58 19 21 15 79 19 71 5 -3 -5 -17 -9
-31 -9 -14 1 -28 -2 -32 -5 -7 -8 64 -94 152 -185 57 -59 67 -74 55 -82 -18
-11 -18 -11 -277 -10 -121 1 -219 -3 -245 -10 -24 -6 -84 -32 -134 -57 l-91
-46 -28 19 c-33 22 -71 29 -80 14 -4 -6 8 -10 31 -10 36 0 37 0 19 -20 -10
-11 -14 -20 -10 -20 5 0 -22 -29 -60 -64 l-70 -64 35 -9 c45 -13 177 -98 190
-123 6 -11 17 -20 25 -20 8 0 15 -4 15 -10 0 -7 350 -10 1025 -10 748 0 1025
3 1025 11 0 8 4 8 13 1 18 -15 1061 -17 1052 -2 -3 5 -2 10 4 10 5 0 11 -5 13
-11 2 -6 28 -9 66 -7 l62 3 -45 68 c-25 37 -72 120 -104 185 -65 129 -65 130
-3 185 24 22 32 37 32 63 0 22 -6 37 -15 40 -10 4 -15 20 -15 51 0 34 6 49 25
67 14 13 25 32 25 43 0 10 5 24 11 30 8 8 7 20 -4 42 -9 17 -11 28 -5 25 5 -4
4 4 -4 16 -33 55 -45 85 -37 91 18 11 -19 37 -98 69 -92 36 -160 89 -198 155
-25 41 -64 192 -65 251 -2 54 10 289 16 306 3 9 27 27 54 39 27 12 47 26 44
31 -3 4 2 8 10 8 8 0 17 4 20 9 10 15 -48 -2 -86 -26 -21 -12 -41 -23 -46 -23
-4 0 -6 18 -4 39 2 22 -4 63 -13 91 -25 75 -22 113 15 169 35 56 103 122 149
146 48 24 161 57 177 51 8 -3 14 0 14 6 0 7 18 9 51 6 29 -3 60 -3 70 -1 16 5
16 7 -2 38 -26 43 -74 80 -127 95 -38 12 -48 10 -117 -15 -42 -15 -102 -46
-133 -69 -70 -52 -160 -149 -168 -182 -3 -13 -10 -24 -14 -24 -5 0 -6 -10 -3
-22 4 -18 2 -20 -5 -9 -8 11 -16 -4 -33 -62 -16 -56 -25 -74 -34 -67 -7 6 -15
6 -23 -2 -7 -7 -12 -8 -12 -2 0 6 3 14 7 18 4 4 9 19 11 34 16 121 83 261 160
333 28 28 52 52 52 55 0 2 -7 4 -16 4 -10 0 -14 6 -10 15 3 9 -3 19 -17 26
-12 7 -38 29 -58 51 -25 25 -46 38 -65 39 -16 1 -39 3 -51 4 -13 1 -23 -2 -23
-6 0 -14 -26 -11 -38 4 -6 7 -22 13 -36 15 -14 1 -35 11 -46 22 -18 18 -18 21
-4 18 9 -2 19 2 21 8 7 21 -26 10 -50 -17z m-738 -326 c-1 -5 0 -10 1 -13 8
-20 3 -63 -7 -72 -7 -6 -13 -19 -13 -29 0 -20 -36 -49 -61 -49 -9 0 -27 8 -39
18 -44 36 0 114 63 114 20 0 34 4 31 9 -3 5 -2 14 1 19 7 12 26 14 24 3z m614
-1519 c20 -11 32 -13 35 -6 2 7 12 8 25 4 12 -4 43 -7 69 -7 27 0 48 -2 48 -3
0 -20 -36 -72 -56 -81 -32 -14 -35 -14 -27 5 5 13 3 15 -13 6 -10 -5 -28 -6
-39 -2 -11 4 -30 4 -41 -1 -12 -4 -25 -5 -28 -2 -3 4 -6 1 -6 -5 0 -7 -10 -11
-22 -11 -17 1 -19 2 -5 6 9 2 17 10 17 18 0 19 -27 38 -42 29 -10 -5 -10 -4
-1 6 6 7 9 19 6 26 -3 8 1 14 11 14 9 0 16 5 16 10 0 14 16 12 53 -6z"/>
<path d="M6045 2380 c-4 -6 -11 -8 -16 -5 -5 4 -9 3 -9 -2 0 -4 -18 -17 -40
-27 -25 -12 -39 -25 -36 -33 3 -7 -3 -17 -13 -22 -14 -8 -21 -4 -34 19 -16 27
-16 29 0 33 11 3 7 5 -10 6 -16 0 -26 -3 -23 -7 3 -5 -19 -16 -49 -26 -30 -9
-55 -20 -55 -23 0 -3 6 -3 13 0 6 2 23 8 37 12 24 7 24 7 5 -9 -11 -8 -32 -16
-47 -16 -16 0 -28 -5 -28 -11 0 -8 11 -9 33 -5 23 4 28 3 17 -4 -8 -5 -23 -10
-32 -10 -20 0 -25 -20 -5 -21 6 0 1 -5 -13 -11 -23 -9 -24 -11 -5 -17 17 -7
16 -9 -10 -19 -28 -10 -28 -10 -6 -11 l24 -1 -23 -20 c-13 -11 -28 -20 -33
-20 -6 0 -7 -3 -4 -7 4 -3 2 -12 -4 -20 -9 -10 -8 -13 0 -13 7 0 9 -5 5 -12
-4 -7 -3 -8 5 -4 6 4 9 11 6 16 -6 10 23 22 36 14 5 -3 9 -1 9 4 0 5 7 9 16 9
18 0 16 -2 -33 -34 -15 -10 -16 -13 -3 -22 9 -7 18 -6 26 0 7 6 50 28 95 51
74 36 87 39 134 33 55 -6 108 2 100 15 -3 5 3 13 12 19 10 6 14 11 8 12 -5 0
1 4 15 8 14 4 25 11 25 16 1 18 23 50 30 43 4 -3 -1 -18 -10 -31 -15 -24 -15
-26 5 -32 16 -5 18 -10 10 -20 -14 -17 -7 -22 82 -46 80 -22 91 -18 103 38 5
24 2 35 -15 51 -12 11 -19 25 -16 31 4 6 2 19 -3 28 -9 16 -10 15 -11 -7 0
-14 -4 -31 -9 -39 -5 -8 -7 4 -4 32 5 40 3 46 -18 57 -20 10 -22 10 -11 -1 6
-7 11 -24 11 -38 -1 -19 -3 -21 -6 -7 -7 27 -54 72 -85 79 -14 4 -34 10 -43
13 -15 6 -16 4 -6 -14 7 -14 8 -23 1 -27 -6 -4 -8 -11 -5 -16 11 -16 -11 -10
-35 11 -13 11 -27 20 -32 20 -16 0 -8 19 12 25 11 3 20 11 20 16 0 12 -47 12
-55 -1z"/>
<path d="M3934 2277 c1 -11 9 -25 18 -31 8 -6 13 -17 10 -25 -3 -8 0 -11 7 -7
10 7 16 -6 12 -27 -1 -5 3 -6 8 -3 11 7 37 -35 106 -169 29 -55 73 -140 99
-190 26 -49 56 -119 66 -155 10 -36 23 -78 29 -93 6 -16 8 -39 5 -53 -7 -26 4
-32 24 -12 8 8 14 5 22 -16 17 -46 13 -94 -10 -106 -14 -8 -20 -21 -20 -45 0
-52 -28 -125 -67 -175 -32 -42 -34 -48 -27 -95 9 -70 18 -90 59 -130 36 -36
49 -82 20 -71 -9 3 -15 0 -15 -9 0 -14 29 -28 50 -23 25 6 37 -78 38 -268 1
-120 -4 -229 -13 -299 -8 -60 -16 -123 -17 -140 -1 -16 -5 -34 -8 -40 -4 -5
-10 -21 -12 -35 -3 -14 -9 -33 -13 -43 -7 -16 45 -17 1012 -17 l1019 0 29 93
c24 78 29 112 31 222 1 72 0 122 -3 112 -2 -9 -11 -17 -19 -17 -10 0 -14 13
-14 45 0 41 7 66 33 122 6 14 7 65 1 148 -5 70 -5 129 -1 132 4 3 7 64 5 135
-2 116 -4 132 -20 136 -10 2 -18 12 -18 21 0 11 -3 12 -8 4 -4 -6 -14 -13 -22
-15 -8 -2 -21 -10 -28 -18 -12 -13 -13 -12 -7 5 4 11 12 34 18 50 5 17 15 47
23 68 7 21 8 35 3 31 -6 -3 -2 11 9 32 26 50 52 140 52 176 0 16 -9 46 -20 68
-11 22 -20 47 -19 57 0 14 2 13 9 -4 10 -24 22 -32 15 -10 -2 6 -6 37 -9 68
-6 67 -25 116 -38 97 -4 -7 -8 -23 -8 -35 0 -12 -6 -24 -12 -26 -10 -4 -10 -8
1 -15 9 -7 10 -12 2 -16 -6 -4 -11 -24 -11 -45 0 -36 -10 -67 -45 -146 -7 -16
-16 -41 -20 -55 -15 -52 -47 -89 -133 -153 -182 -136 -239 -132 -354 28 -95
132 -96 136 -100 327 -2 98 -7 164 -12 160 -5 -3 -7 2 -3 11 3 8 2 28 -2 44
-7 27 -8 26 -19 -20 -7 -26 -17 -45 -22 -42 -5 3 -17 -9 -27 -27 -13 -25 -16
-52 -14 -113 6 -141 4 -159 -17 -199 -24 -44 -17 -57 32 -70 16 -4 30 -16 33
-26 3 -11 10 -20 15 -20 5 0 30 -20 56 -44 44 -41 75 -95 116 -198 8 -21 20
-38 25 -38 6 0 46 24 89 54 98 66 172 110 177 104 3 -2 -12 -28 -31 -57 -20
-30 -48 -79 -62 -110 -23 -50 -26 -67 -24 -151 3 -124 12 -163 40 -175 24 -10
28 -38 13 -77 -40 -103 -49 -154 -42 -258 4 -58 11 -112 16 -119 5 -9 4 -12
-3 -7 -13 8 -24 -25 -16 -50 5 -16 4 -16 -5 -4 -7 10 -11 11 -11 3 0 -9 -7
-10 -22 -4 -26 9 -34 41 -68 273 -13 88 -27 150 -40 173 -11 20 -18 40 -15 45
3 5 1 11 -5 15 -5 3 -10 15 -10 25 0 24 -20 37 -31 19 -4 -7 -5 -16 -1 -19 11
-8 13 -30 2 -30 -5 0 -10 5 -10 11 0 8 -5 7 -15 -1 -11 -9 -12 -15 -5 -20 7
-4 2 -13 -15 -24 -14 -9 -23 -20 -21 -25 3 -4 -1 -8 -9 -8 -10 0 -15 11 -15
33 0 19 -6 34 -15 37 -8 4 -12 15 -10 26 2 11 -2 22 -10 25 -7 2 -19 30 -26
60 -7 31 -15 56 -20 56 -14 0 -20 -37 -29 -175 -5 -77 -14 -156 -19 -175 -6
-19 -11 -56 -11 -82 0 -50 -17 -101 -31 -92 -5 3 -9 0 -9 -6 0 -6 -4 -9 -9 -5
-5 3 -13 0 -17 -6 -4 -7 -9 -8 -13 -1 -8 13 -60 17 -84 7 -30 -13 -70 -10
-103 8 -23 12 -49 15 -94 12 -68 -4 -83 -15 -73 -55 6 -22 4 -23 -9 -12 -13
10 -19 10 -32 -3 -9 -9 -16 -19 -16 -23 0 -4 -11 -20 -25 -36 -14 -16 -25 -26
-25 -21 0 4 -6 3 -12 -2 -37 -27 -116 30 -150 108 -7 16 -23 32 -35 35 -13 4
-23 11 -23 17 0 5 -11 33 -24 61 -13 28 -40 85 -59 126 -36 76 -62 103 -144
146 -30 16 -33 22 -33 67 0 28 10 76 23 108 18 47 26 57 40 53 10 -3 25 0 34
7 10 9 39 12 89 10 41 -1 74 0 74 3 0 3 -13 20 -28 38 -21 24 -35 58 -51 128
-23 104 -63 192 -111 246 -17 20 -30 47 -31 62 0 23 -1 24 -8 7 -7 -16 -9 -13
-15 18 -4 20 -4 42 -1 47 7 12 -36 151 -45 145 -3 -2 -6 4 -7 13 -1 20 -37
122 -53 151 -19 36 -31 23 -14 -16 9 -21 18 -45 21 -53 7 -23 -33 29 -68 85
-16 28 -50 78 -74 113 -25 37 -42 72 -40 83 2 10 -1 19 -7 19 -5 0 -7 -8 -4
-17 4 -11 -2 -8 -14 7 -23 30 -25 23 -6 -22 34 -81 39 -95 40 -121 0 -15 -2
-27 -5 -27 -10 0 -19 28 -19 54 0 13 -3 26 -6 29 -4 4 -15 30 -25 58 -20 62
-16 89 10 57 10 -12 20 -17 24 -11 3 5 -7 25 -23 44 -17 19 -27 26 -24 17 3
-9 1 -25 -5 -35 -9 -15 -10 -16 -11 -2 0 9 -7 22 -15 29 -13 11 -14 10 -9 -6
4 -12 -3 -8 -20 11 -14 17 -25 34 -26 38 0 8 -12 25 -45 60 -11 12 -20 24 -21
27 -4 24 -20 40 -39 40 -13 0 -26 4 -29 9 -4 5 4 7 16 4 34 -9 13 9 -27 23
-32 11 -34 10 -31 -9z m630 -1623 c9 -3 16 -14 16 -23 0 -10 3 -21 8 -25 4 -4
12 -24 19 -44 10 -31 12 -32 8 -7 -6 34 9 66 23 50 15 -18 32 -65 23 -65 -5 0
7 -32 26 -72 20 -40 38 -93 41 -118 6 -59 -5 -46 -53 63 -21 48 -40 86 -42 83
-3 -2 0 -13 6 -24 6 -12 11 -29 11 -39 0 -16 -1 -16 -14 2 -29 43 -98 176
-102 200 -4 26 2 30 30 19z"/>
<path d="M4743 1618 c-4 -7 -8 -15 -9 -18 0 -3 -3 -12 -7 -20 -3 -8 -7 -24 -9
-35 -2 -13 -12 -21 -31 -23 -15 -2 -27 -8 -27 -13 0 -5 -8 -9 -19 -9 -10 0
-24 -7 -31 -15 -10 -12 -6 -18 22 -34 18 -11 40 -26 48 -35 35 -35 68 -43 126
-34 63 10 82 23 203 137 69 64 73 70 58 86 -13 12 -21 14 -36 5 -33 -17 -182
-15 -219 4 -37 19 -58 20 -69 4z"/>
<path d="M5754 1431 c6 -52 11 -59 36 -43 11 7 20 9 20 4 0 -4 10 -12 22 -17
12 -6 24 -16 26 -24 3 -9 0 -11 -9 -7 -8 4 -3 -2 10 -13 27 -24 50 -28 31 -6
-13 16 -13 16 40 19 18 1 26 7 28 24 3 17 10 22 33 22 16 0 29 -3 29 -8 0 -4
18 -6 40 -4 22 2 40 8 40 12 0 12 -40 20 -107 20 -34 0 -65 5 -68 10 -4 6 -10
8 -15 5 -12 -7 -131 23 -148 38 -11 8 -12 2 -8 -32z"/>
<path d="M2351 1448 c-31 -17 -38 -36 -14 -44 10 -3 27 -10 38 -14 11 -5 31
-12 43 -15 l24 -7 -21 -22 c-47 -50 -17 -56 59 -10 40 24 49 35 53 64 2 19 2
40 0 46 -6 16 -152 17 -182 2z"/>
<path d="M1630 1330 c-48 -10 -111 -39 -85 -40 11 0 33 -7 49 -15 15 -8 32
-15 36 -15 4 0 25 -7 46 -16 33 -14 36 -17 20 -26 -9 -5 -35 -7 -57 -3 -51 9
-53 -11 -1 -24 98 -25 121 -24 162 4 49 34 54 48 27 78 -43 48 -123 71 -197
57z"/>
<path d="M2080 1261 c-48 -10 -60 -18 -60 -44 1 -30 55 -57 101 -49 19 3 49 6
67 6 29 1 33 4 30 26 -2 18 -15 31 -48 47 -25 12 -47 22 -50 21 -3 0 -21 -3
-40 -7z"/>
<path d="M2467 1214 c-14 -28 -15 -111 -2 -162 5 -19 9 -21 20 -12 11 9 24 6
59 -15 25 -15 50 -24 56 -20 5 3 10 1 10 -4 0 -6 7 -11 15 -11 9 0 15 9 15 23
0 18 2 19 10 7 8 -12 10 -12 11 5 0 12 3 15 6 7 4 -10 7 -10 17 2 20 26 109
67 120 56 18 -18 26 -10 26 28 0 49 -15 73 -24 38 -4 -18 -16 -28 -37 -34 -44
-11 -99 -3 -99 14 0 10 -13 14 -40 14 -27 0 -40 -4 -40 -14 0 -14 -73 -31 -89
-21 -16 10 -18 66 -3 82 13 13 13 16 -1 30 -14 14 -17 13 -30 -13z"/>
<path d="M1635 999 c-53 -39 -75 -67 -75 -93 0 -17 2 -19 11 -6 8 11 9 5 6
-27 -5 -45 8 -69 28 -50 6 7 14 18 16 25 3 8 16 -3 34 -28 17 -22 41 -43 55
-46 14 -3 35 -10 48 -15 13 -5 36 -9 52 -9 17 0 30 -5 30 -12 1 -8 6 -6 14 5
7 9 19 17 27 17 16 1 49 24 49 34 0 4 -6 6 -12 3 -7 -2 -17 2 -23 10 -5 7 -31
15 -56 18 -25 2 -57 9 -70 14 l-24 9 30 7 c47 11 52 13 28 14 -13 1 -23 6 -23
11 0 6 -24 10 -54 10 -56 0 -114 15 -102 27 3 3 0 13 -6 21 -10 12 -4 21 31
53 50 46 43 50 -14 8z"/>
</g>
</svg>
